<svg width="52" height="42" viewBox="0 0 52 42" fill="none" xmlns="http://www.w3.org/2000/svg">
<path d="M51.7103 5.31575C49.8361 6.14588 47.8206 6.69929 45.694 6.9615C47.8557 5.67825 49.5196 3.63134 50.3001 1.21225C48.2774 2.39763 46.0359 3.26884 43.6519 3.728C41.7476 1.71009 39.0312 0.458252 36.0225 0.458252C30.243 0.458252 25.5571 5.10188 25.5571 10.8282C25.5571 11.639 25.6526 12.428 25.8302 13.1941C17.135 12.7579 9.42223 8.62417 4.26264 2.3505C3.35639 3.88388 2.84648 5.67825 2.84648 7.57292C2.84648 11.1725 4.68919 14.342 7.49977 16.2089C5.78394 16.1569 4.1696 15.6796 2.75585 14.9135C2.75585 14.945 2.75585 14.9909 2.75585 15.0356C2.75585 20.0659 6.36394 24.2552 11.1465 25.2085C10.2729 25.4478 9.34852 25.5807 8.39635 25.5807C7.72089 25.5807 7.06235 25.5046 6.42435 25.3898C7.75594 29.5005 11.619 32.5057 16.1961 32.5951C12.6146 35.3718 8.10394 37.0345 3.19931 37.0345C2.35227 37.0345 1.52335 36.9862 0.704102 36.8871C5.34048 39.8221 10.842 41.5416 16.7484 41.5416C35.9935 41.5416 46.5229 25.7378 46.5229 12.0268C46.5229 11.5773 46.5084 11.1303 46.4879 10.688C48.542 9.23679 50.3122 7.40738 51.7103 5.31575Z" fill="url(#paint0_linear)"/>
<defs>
<linearGradient id="paint0_linear" x1="8.49543" y1="2.04359" x2="45.2976" y2="38.8458" gradientUnits="userSpaceOnUse">
<stop stop-color="#2AA4F4"/>
<stop offset="1" stop-color="#007AD9"/>
</linearGradient>
</defs>
</svg>
