<svg width="68" height="68" viewBox="0 0 68 68" fill="none" xmlns="http://www.w3.org/2000/svg">
<path d="M3.9256 38.7429C3.20735 33.9234 3.51902 29.5544 4.50785 24.7831C4.8351 23.2035 5.26719 21.6281 6.03077 20.2044C8.52552 15.5577 14.0845 13.3718 19.3474 12.7811C24.6104 12.1917 29.665 12.468 34.952 12.162C42.7579 11.7101 49.5961 12.5714 56.8848 14.2586C58.0111 14.5193 59.16 14.7899 60.1389 15.4019C62.3943 16.8129 63.2159 19.6547 63.6593 22.2685C64.9967 30.1451 64.5263 38.2173 63.6112 46.1535C63.3718 48.2246 63.0502 50.4148 61.7058 52.0142C60.5044 53.4422 58.6656 54.1704 56.8579 54.6591C52.0937 55.9469 47.0858 55.9398 42.1473 55.9242C36.1604 55.9044 30.1722 55.886 24.1854 55.8661C18.3572 55.8477 12.0119 55.6508 7.5296 51.9476C6.56485 51.1515 5.70494 50.1867 5.24169 49.0279C4.90452 48.1864 4.78977 47.2769 4.67644 46.3787C4.31094 43.4689 4.35769 41.6442 3.9256 38.7429Z" fill="#EF4823"/>
<path d="M65.1863 31.4513C65.1254 28.1491 64.8648 24.8213 64.2513 21.5715C63.798 19.1703 62.9565 16.599 60.9151 15.0803C59.7421 14.2077 58.3127 13.8606 56.9116 13.539C55.3292 13.1749 53.7397 12.8434 52.1417 12.5573C49.0392 12.0005 45.9041 11.6081 42.7563 11.4367C39.3988 11.2539 36.0767 11.4438 32.7234 11.5543C29.3447 11.6648 25.9617 11.6166 22.5858 11.8064C17.2917 12.1053 11.6193 13.0885 7.64984 16.922C5.57867 18.9223 4.49634 21.5021 3.89142 24.2788C3.19301 27.4776 2.77792 30.7657 2.82892 34.0424C2.85442 35.6815 3.00884 37.3093 3.24259 38.9313C3.68034 41.9531 3.59392 45.0669 4.22292 48.0603C4.80376 50.8243 7.03784 52.7892 9.43909 54.0698C14.5051 56.7728 20.5528 56.5618 26.1246 56.5802C33.0903 56.6028 40.0788 56.7813 47.0431 56.5986C50.402 56.5108 53.7949 56.226 57.049 55.342C59.7123 54.6181 62.1844 53.3403 63.322 50.6883C63.8632 49.4274 64.0828 48.0731 64.2528 46.7202C64.4624 45.0584 64.6296 43.3882 64.7755 41.7193C65.0758 38.3066 65.2501 34.8783 65.1863 31.4513ZM62.9027 46.1535C62.5698 49.0109 61.9181 51.6828 59.1528 53.0782C56.5248 54.4042 53.3019 54.781 50.4077 55.0119C44.0539 55.5191 37.5982 55.2018 31.2303 55.1805C28.1363 55.1706 25.0394 55.1975 21.9454 55.1352C19.3444 55.0828 16.725 54.9298 14.1863 54.3234C11.6533 53.7185 9.14301 52.6333 7.28151 50.7648C5.17067 48.6454 5.25426 45.499 5.04459 42.6997C4.94117 41.3128 4.80659 39.9315 4.60826 38.5545C4.15634 35.4279 4.13651 32.2603 4.50342 29.1223C4.84909 26.1587 5.30384 22.8437 6.82959 20.2285C9.30592 15.9813 14.447 14.0972 19.0937 13.5192C22.2061 13.131 25.3582 13.097 28.4904 13.0531C31.6099 13.0092 34.7209 12.8151 37.839 12.7613C43.8726 12.6564 49.8538 13.4143 55.7358 14.7219C57.0943 15.0237 58.5875 15.2574 59.7832 16.0125C60.8513 16.6868 61.5753 17.7777 62.0484 18.928C63.1024 21.4908 63.3404 24.453 63.5628 27.1843C64.0757 33.5055 63.6365 39.8692 62.9027 46.1535Z" fill="#010101"/>
<path d="M27.7667 24.8398C26.9167 31.1667 28.0217 37.3334 27.9084 43.1602C33.3186 40.1299 39.1525 37.0997 44.5641 34.0694C42.3428 32.6995 39.8381 31.2998 37.4836 30.1736C34.35 28.6762 30.4031 26.6206 27.7667 24.8398Z" fill="#D6E5E5"/>
<path d="M44.9211 33.4575C39.4698 30.1099 33.4461 27.7908 28.1237 24.2279C27.9055 24.082 27.6959 24.0891 27.5202 24.1698C27.312 24.2208 27.1349 24.3653 27.0839 24.6501C26.4733 28.0388 26.2863 31.4373 26.5781 34.8685C26.8133 37.6338 27.2425 40.3751 27.2 43.1574C27.1915 43.7043 27.805 44.0273 28.2654 43.7694C33.7861 40.6825 39.4004 37.767 44.9211 34.6787C45.3957 34.4152 45.3645 33.7309 44.9211 33.4575ZM28.0146 35.0966C27.7426 32.0508 27.846 29.0318 28.3065 26.0186C33.0509 29.0361 38.2713 31.2135 43.1262 34.0468C38.2996 36.7229 33.4192 39.3027 28.5926 41.9788C28.5275 39.6767 28.2186 37.3944 28.0146 35.0966Z" fill="#010101"/>
</svg>
