<svg width="68" height="49" viewBox="0 0 68 49" fill="none" xmlns="http://www.w3.org/2000/svg">
<path d="M3.9256 28.7429C3.20735 23.9234 3.51902 19.5544 4.50785 14.7831C4.8351 13.2035 5.26719 11.6281 6.03077 10.2044C8.52552 5.55772 14.0845 3.3718 19.3474 2.78105C24.6104 2.19172 29.665 2.46797 34.952 2.16197C42.7579 1.71005 49.5961 2.57139 56.8848 4.25864C58.0111 4.5193 59.16 4.78989 60.1389 5.40189C62.3943 6.81289 63.2159 9.65472 63.6593 12.2685C64.9967 20.1451 64.5263 28.2173 63.6112 36.1535C63.3718 38.2246 63.0502 40.4148 61.7058 42.0142C60.5044 43.4422 58.6656 44.1704 56.8579 44.6591C52.0937 45.9469 47.0858 45.9398 42.1473 45.9242C36.1604 45.9044 30.1722 45.886 24.1854 45.8661C18.3572 45.8477 12.0119 45.6508 7.5296 41.9476C6.56485 41.1515 5.70494 40.1867 5.24169 39.0279C4.90452 38.1864 4.78977 37.2769 4.67644 36.3787C4.31094 33.4689 4.35769 31.6442 3.9256 28.7429Z" fill="#EF4823"/>
<path d="M65.1863 21.4513C65.1254 18.1491 64.8648 14.8213 64.2513 11.5715C63.798 9.17026 62.9565 6.59901 60.9151 5.08034C59.7421 4.20768 58.3127 3.86059 56.9116 3.53901C55.3292 3.17493 53.7397 2.84343 52.1417 2.55726C49.0392 2.00051 45.9041 1.60809 42.7563 1.43667C39.3988 1.25392 36.0767 1.44376 32.7234 1.55426C29.3447 1.66476 25.9617 1.61659 22.5858 1.80642C17.2917 2.10534 11.6193 3.08851 7.64984 6.92201C5.57867 8.92234 4.49634 11.5021 3.89142 14.2788C3.19301 17.4776 2.77792 20.7657 2.82892 24.0424C2.85442 25.6815 3.00884 27.3093 3.24259 28.9313C3.68034 31.9531 3.59392 35.0669 4.22292 38.0603C4.80376 40.8243 7.03784 42.7892 9.43909 44.0698C14.5051 46.7728 20.5528 46.5618 26.1246 46.5802C33.0903 46.6028 40.0788 46.7813 47.0431 46.5986C50.402 46.5108 53.7949 46.226 57.049 45.342C59.7123 44.6181 62.1844 43.3403 63.322 40.6883C63.8632 39.4274 64.0828 38.0731 64.2528 36.7202C64.4624 35.0584 64.6296 33.3882 64.7755 31.7193C65.0758 28.3066 65.2501 24.8783 65.1863 21.4513ZM62.9027 36.1535C62.5698 39.0109 61.9181 41.6828 59.1528 43.0782C56.5248 44.4042 53.3019 44.781 50.4077 45.0119C44.0539 45.5191 37.5982 45.2018 31.2303 45.1805C28.1363 45.1706 25.0394 45.1975 21.9454 45.1352C19.3444 45.0828 16.725 44.9298 14.1863 44.3234C11.6533 43.7185 9.14301 42.6333 7.28151 40.7648C5.17067 38.6454 5.25426 35.499 5.04459 32.6997C4.94117 31.3128 4.80659 29.9315 4.60826 28.5545C4.15634 25.4279 4.13651 22.2603 4.50342 19.1223C4.84909 16.1587 5.30384 12.8437 6.82959 10.2285C9.30592 5.98134 14.447 4.09718 19.0937 3.51918C22.2061 3.13101 25.3582 3.09701 28.4904 3.05309C31.6099 3.00917 34.7209 2.81509 37.839 2.76126C43.8726 2.65643 49.8538 3.41434 55.7358 4.72193C57.0943 5.02368 58.5875 5.25743 59.7832 6.01251C60.8513 6.68684 61.5753 7.77767 62.0484 8.92801C63.1024 11.4908 63.3404 14.453 63.5628 17.1843C64.0757 23.5055 63.6365 29.8692 62.9027 36.1535Z" fill="#010101"/>
<path d="M27.7667 14.8398C26.9167 21.1667 28.0217 27.3334 27.9084 33.1602C33.3186 30.1299 39.1525 27.0997 44.5641 24.0694C42.3428 22.6995 39.8381 21.2998 37.4836 20.1736C34.35 18.6762 30.4031 16.6206 27.7667 14.8398Z" fill="#D6E5E5"/>
<path d="M44.9211 23.4575C39.4698 20.1099 33.4461 17.7908 28.1237 14.2279C27.9055 14.082 27.6959 14.0891 27.5202 14.1698C27.312 14.2208 27.1349 14.3653 27.0839 14.6501C26.4733 18.0388 26.2863 21.4373 26.5781 24.8685C26.8133 27.6338 27.2425 30.3751 27.2 33.1574C27.1915 33.7043 27.805 34.0273 28.2654 33.7694C33.7861 30.6825 39.4004 27.767 44.9211 24.6787C45.3957 24.4152 45.3645 23.7309 44.9211 23.4575ZM28.0146 25.0966C27.7426 22.0508 27.846 19.0318 28.3065 16.0186C33.0509 19.0361 38.2713 21.2135 43.1262 24.0468C38.2996 26.7229 33.4192 29.3027 28.5926 31.9788C28.5275 29.6767 28.2186 27.3944 28.0146 25.0966Z" fill="#010101"/>
</svg>
